<svg width="427" height="566" viewBox="0 0 427 566" fill="none" xmlns="http://www.w3.org/2000/svg">
<path d="M230.844 155.978L228.845 156.022L237.845 565.022L239.844 564.978L230.844 155.978Z" fill="#3F3D56"/>
<path d="M233.599 336.66C233.496 336.311 223.581 301.302 244.398 267.909L246.095 268.967C225.747 301.608 235.417 335.756 235.518 336.098L233.599 336.66V336.66Z" fill="#3F3D56"/>
<path d="M244.901 269.809C244.901 269.809 238.475 225.892 297.668 213.839C309.999 211.328 321.592 209.612 332.22 208.468C344.764 207.119 349.657 224.29 338.325 229.837C321.913 237.869 306.475 247.989 298.429 259.974C276.237 293.027 244.901 269.809 244.901 269.809Z" fill="#405E5C"/>
<path d="M237.09 463.66L235.171 463.098C235.271 462.757 244.922 428.577 224.593 395.967L226.291 394.908C247.107 428.302 237.192 463.311 237.09 463.66Z" fill="#3F3D56"/>
<path d="M225.788 396.809C225.788 396.809 232.213 352.892 173.021 340.839C160.689 338.328 149.096 336.612 138.469 335.468C125.925 334.119 121.032 351.29 132.364 356.837C148.775 364.869 164.213 374.989 172.26 386.974C194.452 420.027 225.788 396.809 225.788 396.809V396.809Z" fill="#405E5C"/>
<path d="M308.173 99.1611C320.087 96.0196 331.229 90.5457 330.859 85.1306C330.42 78.6978 313.879 74.3876 299.609 73.7317C310.372 65.3109 320.262 53.6702 317.238 48.4056C314.457 43.5656 301.522 45.4404 289.588 49.7032C296.651 39.6062 301.616 28.2286 297.835 24.335C293.124 19.4847 276.407 27.8563 264.998 37.1099C267.219 22.6937 266.096 4.49665 259.63 2.85029C254.22 1.47297 246.554 12.0584 241.298 23.5894C238.975 11.4885 234.272 0 228.844 0C221.112 0 214.844 23.3121 214.844 38.5C214.844 39.3585 214.867 40.1667 214.906 40.9388C214.13 40.0391 213.241 39.0992 212.226 38.1141C201.331 27.5329 180.241 15.7883 174.854 21.335C171.072 25.2286 176.038 36.6062 183.1 46.7032C171.166 42.4404 158.231 40.5656 155.451 45.4056C151.715 51.909 167.684 68.1436 180.665 76.0166C179.885 75.9226 179.065 75.8434 178.193 75.7839C163.04 74.7501 139.355 79.4166 138.829 87.1306C138.459 92.5457 149.601 98.0196 161.516 101.161C149.654 105.62 138.571 112.548 139.577 118.039C140.798 124.703 159.419 127.035 174.061 125.67C163.122 136.164 151.262 154.965 156.212 160.474C159.839 164.512 171.528 160.333 182.082 153.974C177.017 165.59 174.266 178.368 178.905 181.471C185.037 185.573 201.853 171.298 210.718 159.015C209.815 174.042 213.411 194.686 220.545 195.5C225.938 196.116 231.913 185.235 235.594 173.476C239.508 185.529 245.924 196.916 251.455 196.161C258.647 195.18 261.782 174.019 260.441 158.982C269.586 170.759 284.977 183.355 290.783 179.471C295.423 176.368 292.672 163.59 287.606 151.974C298.161 158.333 309.85 162.512 313.477 158.474C318.427 152.965 306.566 134.164 295.628 123.67C310.269 125.035 328.891 122.703 330.111 116.039C331.117 110.548 320.035 103.62 308.173 99.1611L308.173 99.1611ZM244.019 141.666C240.956 142.084 238.156 142.681 236.026 144.205C233.764 141.959 230.459 141.275 226.785 140.856C222.671 140.386 218.933 140.34 216.082 142.714C215.039 139.815 212.474 137.755 209.486 135.756C206.916 134.038 204.425 132.627 201.82 132.355C201.617 129.174 199.598 126.47 197.126 123.719C195.55 121.965 193.974 120.396 192.225 119.347C194.749 116.274 194.458 112.39 193.677 108.128C193.12 105.087 192.396 102.317 190.776 100.259C192.917 97.8963 193.45 94.5641 193.701 90.8747C193.976 86.8463 193.862 83.1938 191.537 80.4741C197.546 81.2384 200.446 77.4948 203.141 72.803C204.681 70.1228 205.919 67.5409 206.013 64.9238C209.173 64.5042 211.733 62.3056 214.309 59.6527C216.51 57.3866 218.382 55.1427 219.086 52.56C221.607 54.6793 225.048 55 228.844 55C232.542 55 235.903 54.6953 238.406 52.7206C240.349 54.4763 243.063 55.387 246.059 56.1497C248.918 56.8778 251.617 57.3647 254.071 56.8747C254.967 58.9212 256.56 60.7796 258.379 62.6527C260.955 65.3056 263.515 67.5042 266.675 67.9238C266.77 70.5409 268.007 73.1228 269.547 75.803C271.36 78.9579 273.263 81.6858 276.142 82.9029C275.806 84.7355 275.842 86.7526 275.987 88.8747C276.239 92.5641 276.772 95.8964 278.912 98.2588C277.293 100.317 276.569 103.087 276.012 106.128C275.231 110.39 274.94 114.274 277.464 117.348C275.714 118.396 274.138 119.965 272.562 121.719C270.091 124.47 268.072 127.174 267.868 130.355C265.264 130.627 262.772 132.038 260.203 133.756C256.694 136.104 253.771 138.537 253.209 142.314C250.576 141.037 247.424 141.202 244.019 141.666V141.666Z" fill="#BDB048"/>
<path d="M235.844 149C263.458 149 285.844 126.614 285.844 99C285.844 71.3858 263.458 49 235.844 49C208.23 49 185.844 71.3858 185.844 99C185.844 126.614 208.23 149 235.844 149Z" fill="#3F3D56"/>
<path d="M362.969 353.614L361.844 353.637L366.906 565.022L368.031 564.999L362.969 353.614Z" fill="#3F3D56"/>
<path d="M364.518 446.997C364.46 446.816 358.884 428.723 370.592 411.464L371.547 412.011C360.102 428.881 365.541 446.53 365.597 446.706L364.518 446.997V446.997Z" fill="#3F3D56"/>
<path d="M370.875 412.446C370.875 412.446 367.261 389.748 400.553 383.519C407.489 382.221 414.01 381.334 419.987 380.743C427.042 380.046 429.794 388.921 423.421 391.787C414.19 395.938 405.507 401.169 400.982 407.363C388.5 424.446 370.875 412.446 370.875 412.446Z" fill="#405E5C"/>
<path d="M366.482 512.635L365.402 512.344C365.458 512.168 370.887 494.503 359.453 477.649L360.408 477.102C372.116 494.36 366.539 512.454 366.482 512.635Z" fill="#3F3D56"/>
<path d="M360.125 478.084C360.125 478.084 363.739 455.386 330.447 449.157C323.511 447.859 316.99 446.972 311.013 446.381C303.958 445.684 301.206 454.559 307.579 457.425C316.81 461.576 325.493 466.807 330.018 473.001C342.5 490.084 360.125 478.084 360.125 478.084V478.084Z" fill="#405E5C"/>
<path d="M406.462 324.25C413.163 322.626 419.43 319.797 419.222 316.998C418.975 313.674 409.671 311.446 401.645 311.107C407.699 306.755 413.262 300.739 411.561 298.018C409.997 295.516 402.722 296.485 396.009 298.688C399.982 293.47 402.774 287.589 400.647 285.577C397.998 283.07 388.595 287.397 382.178 292.18C383.428 284.729 382.796 275.324 379.159 274.473C376.117 273.761 371.805 279.232 368.849 285.192C367.542 278.938 364.897 273 361.844 273C357.495 273 353.97 285.048 353.97 292.898C353.97 293.342 353.983 293.759 354.005 294.159C353.568 293.694 353.068 293.208 352.498 292.699C346.369 287.23 334.507 281.16 331.478 284.027C329.351 286.039 332.143 291.919 336.116 297.138C329.403 294.935 322.128 293.966 320.564 296.467C318.463 299.828 327.445 308.219 334.746 312.288C334.307 312.239 333.846 312.198 333.355 312.168C324.833 311.633 311.512 314.045 311.216 318.032C311.008 320.831 317.274 323.66 323.976 325.283C317.304 327.588 311.071 331.169 311.636 334.006C312.323 337.45 322.796 338.656 331.031 337.95C324.879 343.374 318.208 353.091 320.992 355.939C323.032 358.025 329.607 355.865 335.543 352.579C332.694 358.583 331.147 365.186 333.756 366.79C337.205 368.91 346.663 361.532 351.649 355.184C351.141 362.95 353.164 373.62 357.176 374.041C360.209 374.359 363.57 368.736 365.641 362.658C367.842 368.888 371.451 374.773 374.561 374.383C378.606 373.875 380.37 362.939 379.615 355.167C384.759 361.254 393.416 367.764 396.681 365.757C399.291 364.153 397.743 357.549 394.894 351.545C400.831 354.832 407.405 356.992 409.445 354.905C412.229 352.057 405.558 342.341 399.406 336.917C407.641 337.622 418.115 336.417 418.801 332.973C419.367 330.135 413.134 326.554 406.462 324.25L406.462 324.25ZM370.379 346.218C368.656 346.434 367.081 346.742 365.884 347.53C364.611 346.369 362.752 346.016 360.686 345.799C358.372 345.556 356.269 345.533 354.666 346.76C354.079 345.261 352.637 344.196 350.956 343.163C349.511 342.275 348.11 341.546 346.645 341.405C346.53 339.761 345.394 338.364 344.005 336.942C343.118 336.035 342.232 335.225 341.248 334.683C342.667 333.094 342.504 331.087 342.064 328.884C341.751 327.312 341.344 325.881 340.433 324.817C341.637 323.596 341.937 321.874 342.078 319.967C342.233 317.885 342.169 315.997 340.861 314.592C344.241 314.987 345.872 313.052 347.388 310.627C348.254 309.242 348.95 307.907 349.003 306.555C350.78 306.338 352.22 305.202 353.669 303.831C354.907 302.659 355.96 301.5 356.355 300.165C357.774 301.26 359.709 301.426 361.844 301.426C363.924 301.426 365.814 301.268 367.222 300.248C368.315 301.155 369.841 301.626 371.526 302.02C373.135 302.396 374.653 302.648 376.033 302.395C376.537 303.452 377.433 304.413 378.456 305.381C379.905 306.752 381.345 307.888 383.122 308.105C383.175 309.458 383.871 310.792 384.737 312.177C385.757 313.808 386.827 315.218 388.447 315.847C388.258 316.794 388.278 317.837 388.359 318.933C388.501 320.84 388.801 322.562 390.004 323.783C389.094 324.847 388.687 326.279 388.373 327.85C387.934 330.053 387.77 332.061 389.19 333.649C388.206 334.191 387.319 335.002 386.433 335.908C385.043 337.33 383.907 338.727 383.793 340.372C382.328 340.512 380.927 341.241 379.482 342.13C377.508 343.343 375.864 344.6 375.548 346.553C374.067 345.892 372.294 345.978 370.379 346.218V346.218Z" fill="#BDB048"/>
<path d="M365.781 350.008C381.313 350.008 393.903 338.438 393.903 324.166C393.903 309.894 381.313 298.325 365.781 298.325C350.25 298.325 337.659 309.894 337.659 324.166C337.659 338.438 350.25 350.008 365.781 350.008Z" fill="#3F3D56"/>
<path d="M72.516 306.558L71.1906 306.586L77.1579 565.022L78.4834 564.994L72.516 306.558Z" fill="#3F3D56"/>
<path d="M76.6236 499.049C76.5556 498.828 69.9815 476.707 83.784 455.606L84.9094 456.275C71.4177 476.9 77.8296 498.477 77.8959 498.693L76.6236 499.049V499.049Z" fill="#3F3D56"/>
<path d="M84.1175 456.807C84.1175 456.807 79.8572 429.057 119.104 421.441C127.281 419.854 134.967 418.77 142.014 418.048C150.331 417.195 153.575 428.045 146.062 431.55C135.18 436.625 124.944 443.02 119.609 450.592C104.895 471.478 84.1175 456.807 84.1175 456.807Z" fill="#405E5C"/>
<path d="M73.6574 455.048L72.385 454.693C72.4511 454.478 78.8507 432.88 65.3716 412.275L66.4969 411.606C80.2995 432.706 73.7254 454.828 73.6574 455.048Z" fill="#3F3D56"/>
<path d="M66.1636 412.807C66.1636 412.807 70.4239 385.057 31.1769 377.441C23.0004 375.854 15.3136 374.77 8.26739 374.048C-0.0499533 373.195 -3.29433 384.045 4.21935 387.55C15.1009 392.625 25.3369 399.02 30.6721 406.592C45.3865 427.478 66.1636 412.807 66.1636 412.807V412.807Z" fill="#405E5C"/>
<path d="M123.788 270.657C131.688 268.672 139.076 265.213 138.831 261.792C138.54 257.727 127.572 255.003 118.11 254.589C125.247 249.268 131.804 241.913 129.799 238.586C127.955 235.528 119.379 236.713 111.466 239.406C116.149 233.026 119.441 225.837 116.934 223.377C113.811 220.312 102.726 225.602 95.1614 231.449C96.634 222.34 95.8896 210.841 91.6024 209.801C88.0158 208.931 82.9325 215.619 79.4474 222.905C77.9071 215.259 74.789 208 71.1902 208C66.0635 208 61.9076 222.73 61.9076 232.327C61.9076 232.87 61.9227 233.38 61.9486 233.868C61.4341 233.3 60.8444 232.706 60.1719 232.083C52.9477 225.397 38.9638 217.976 35.3922 221.481C32.885 223.941 36.1771 231.13 40.8598 237.51C32.947 234.817 24.3707 233.632 22.5271 236.691C20.0499 240.8 30.6386 251.058 39.2455 256.033C38.7281 255.973 38.1845 255.923 37.606 255.886C27.5592 255.233 11.8552 258.181 11.5062 263.055C11.2612 266.477 18.6486 269.936 26.5485 271.921C18.6834 274.738 11.3352 279.116 12.0021 282.586C12.8116 286.796 25.1583 288.27 34.8662 287.407C27.6137 294.039 19.7496 305.918 23.0315 309.399C25.4366 311.951 33.187 309.31 40.185 305.292C36.8264 312.632 35.0023 320.706 38.0786 322.667C42.144 325.258 53.2935 316.238 59.172 308.477C58.573 317.972 60.957 331.017 65.6874 331.531C69.2629 331.921 73.2252 325.045 75.6659 317.615C78.2611 325.231 82.5151 332.426 86.1822 331.949C90.9506 331.329 93.0294 317.958 92.1399 308.456C98.2036 315.898 108.409 323.857 112.258 321.403C115.335 319.442 113.511 311.368 110.152 304.028C117.15 308.046 124.9 310.687 127.305 308.136C130.587 304.654 122.723 292.775 115.471 286.144C125.179 287.006 137.525 285.532 138.335 281.322C139.002 277.852 131.654 273.475 123.788 270.657L123.788 270.657ZM81.2516 297.515C79.221 297.779 77.3642 298.156 75.9521 299.119C74.452 297.7 72.261 297.268 69.8249 297.003C67.0972 296.706 64.6185 296.677 62.7282 298.177C62.0365 296.345 60.3358 295.044 58.3546 293.781C56.6511 292.695 54.9991 291.803 53.2721 291.631C53.1372 289.621 51.7984 287.913 50.1598 286.175C49.115 285.066 48.0697 284.075 46.9098 283.412C48.5833 281.471 48.3903 279.016 47.8725 276.323C47.5032 274.402 47.0233 272.651 45.9495 271.351C47.3688 269.858 47.7221 267.752 47.889 265.421C48.0712 262.876 47.9955 260.568 46.4538 258.849C50.438 259.332 52.3608 256.967 54.148 254.002C55.1689 252.309 55.9897 250.677 56.0521 249.024C58.1474 248.758 59.8448 247.369 61.553 245.693C63.0123 244.261 64.2535 242.843 64.7198 241.211C66.3918 242.55 68.6733 242.753 71.1902 242.753C73.6421 242.753 75.8704 242.56 77.5298 241.313C78.8181 242.422 80.618 242.998 82.6041 243.479C84.5 243.94 86.2897 244.247 87.9168 243.938C88.5108 245.231 89.5668 246.405 90.773 247.589C92.4812 249.265 94.1786 250.654 96.274 250.919C96.3364 252.573 97.1571 254.204 98.1781 255.898C99.3798 257.891 100.642 259.615 102.551 260.384C102.328 261.542 102.352 262.817 102.448 264.158C102.615 266.489 102.968 268.594 104.387 270.087C103.314 271.387 102.834 273.138 102.464 275.059C101.947 277.753 101.754 280.207 103.427 282.149C102.267 282.811 101.222 283.802 100.177 284.911C98.5385 286.649 97.1997 288.358 97.0648 290.368C95.3378 290.54 93.6858 291.431 91.9822 292.517C89.6556 294 87.7175 295.538 87.3453 297.924C85.5994 297.117 83.5093 297.222 81.2516 297.515V297.515Z" fill="#BDB048"/>
<path d="M75.8315 302.149C94.141 302.149 108.984 288.004 108.984 270.555C108.984 253.107 94.141 238.962 75.8315 238.962C57.5221 238.962 42.6793 253.107 42.6793 270.555C42.6793 288.004 57.5221 302.149 75.8315 302.149Z" fill="#3F3D56"/>
</svg>
