<svg width="30" height="34" viewBox="0 0 30 34" fill="none" xmlns="http://www.w3.org/2000/svg">
<path d="M30 32.6121C30 32.856 29.7964 33.0537 29.546 33.0537C29.2948 33.0537 29.0913 32.856 29.0913 32.6121C29.0913 25.054 22.7823 18.9268 15 18.9268C7.21775 18.9268 0.908728 25.054 0.908728 32.6121C0.908728 32.856 0.705173 33.0537 0.45405 33.0537C0.203559 33.0537 0 32.856 0 32.6121C0 24.5664 6.71552 18.0437 14.9999 18.0437C23.2843 18.0437 29.9998 24.5664 29.9998 32.6121H30ZM15.0001 17.1611C10.2301 17.1611 6.36379 13.4055 6.36379 8.77351C6.36379 4.14087 10.2301 0.385315 15.0001 0.385315C19.7702 0.385315 23.6364 4.14087 23.6364 8.77351C23.6364 13.4055 19.7702 17.1611 15.0001 17.1611ZM15.0001 16.2779C19.2679 16.2779 22.7278 12.9182 22.7278 8.77342C22.7278 4.62859 19.268 1.2683 15.0001 1.2683C10.7322 1.2683 7.27241 4.62843 7.27241 8.77342C7.27241 12.9182 10.7322 16.2779 15.0001 16.2779Z" fill="#7E7F1E"/>
</svg>
