<svg width="30" height="31" viewBox="0 0 30 31" fill="none" xmlns="http://www.w3.org/2000/svg" class="icon">
<ellipse cx="24.315" cy="6.75628" rx="2.315" ry="2.12591" fill="#BDB048"/>
<path d="M24.8601 0.474243H5.1357C3.77465 0.475168 2.46972 1.0163 1.50721 1.97832C0.544468 2.94037 0.00252543 4.2449 0 5.60619V25.338C0.00123312 26.7 0.542574 28.0054 1.50532 28.9687C2.46837 29.9316 3.77394 30.4731 5.13562 30.4742H24.86C26.222 30.473 27.5282 29.9316 28.4916 28.969C29.4553 28.0061 29.9976 26.7003 30 25.338V5.60619C29.9966 4.24459 29.4534 2.94005 28.49 1.97801C27.5266 1.01597 26.2214 0.47519 24.86 0.474243H24.8601ZM29.1205 25.3423C29.1193 26.4718 28.6701 27.5543 27.8711 28.3526C27.0723 29.1505 25.9893 29.5992 24.8601 29.5992H5.1357C4.00676 29.598 2.92437 29.149 2.12594 28.3513C1.32719 27.5534 0.877431 26.4714 0.875221 25.3423V5.60572C0.879845 4.47815 1.33055 3.39834 2.12902 2.60253C2.92713 1.80641 4.00825 1.35901 5.1357 1.35775H24.8601C25.9894 1.35775 27.0723 1.80607 27.8711 2.60403C28.6701 3.40229 29.1193 4.48518 29.1205 5.61432V25.3423Z" fill="#BDB048"/>
<path d="M15.0007 7.04694C12.7666 7.04694 10.6241 7.93462 9.04409 9.51456C7.46444 11.0948 6.5769 13.2377 6.5769 15.4722C6.5769 17.7068 7.46444 19.8497 9.04409 21.4296C10.6241 23.0095 12.7666 23.8972 15.0007 23.8972C17.2345 23.8972 19.3774 23.0095 20.957 21.4296C22.5367 19.8497 23.4242 17.7068 23.4242 15.4722C23.4208 13.2387 22.532 11.0979 20.9531 9.51859C19.374 7.93928 17.2337 7.05065 15.0008 7.04702L15.0007 7.04694ZM15.0007 23.0215V23.0218C12.9984 23.0228 11.0775 22.2285 9.66132 20.813C8.24479 19.3977 7.44849 17.4774 7.44755 15.4748C7.44693 13.4721 8.24163 11.5515 9.65698 10.1351C11.0723 8.71859 12.9926 7.92246 14.9946 7.92215C16.9968 7.92153 18.9174 8.71701 20.3333 10.1329C21.7492 11.5488 22.5446 13.4694 22.5446 15.4721C22.5412 17.4719 21.7453 19.3892 20.3312 20.8035C18.9171 22.2178 17.0002 23.0139 15.0007 23.0173V23.0215Z" fill="#BDB048"/>
</svg>
