<svg width="30" height="34" viewBox="0 0 30 34" fill="none" xmlns="http://www.w3.org/2000/svg">
<path d="M9.30133 33.1427C7.79202 33.1427 6.52747 31.7056 6.52747 29.8857C6.52747 28.0654 7.75137 26.6286 9.30133 26.6286C10.8516 26.6286 12.0752 28.0657 12.0752 29.8857C12.0752 31.7056 10.8106 33.1427 9.30133 33.1427ZM9.30133 27.5862C8.24075 27.5862 7.34328 28.5923 7.34328 29.8853C7.34328 31.1787 8.2001 32.1845 9.30133 32.1845C10.4028 32.1845 11.2594 31.1784 11.2594 29.8853C11.2594 28.5923 10.3619 27.5862 9.30133 27.5862Z" fill="#BDB048"/>
<path d="M22.5185 33.1427C21.0092 33.1427 19.7446 31.7056 19.7446 29.8857C19.7446 28.0654 20.9685 26.6286 22.5185 26.6286C24.0688 26.6286 25.2924 28.0657 25.2924 29.8857C25.2924 31.7056 24.0685 33.1427 22.5185 33.1427ZM22.5185 27.5862C21.4579 27.5862 20.5604 28.5923 20.5604 29.8853C20.5604 31.1787 21.4173 32.1845 22.5185 32.1845C23.6197 32.1848 24.4765 31.131 24.4765 29.8857C24.4765 28.6401 23.6197 27.5862 22.5185 27.5862Z" fill="#BDB048"/>
<path d="M27.2099 26.6282H8.77104C6.48665 26.6282 4.60999 24.9515 4.60999 22.9398C4.60999 20.8802 6.48665 19.2514 8.77104 19.2514H26.8835L29.1273 6.41403H7.30253C7.05781 6.41403 6.89447 6.22258 6.89447 5.93489C6.89447 5.64754 7.05752 5.45575 7.30253 5.45575H29.576C29.6984 5.45575 29.8207 5.50353 29.9024 5.64721C29.984 5.7431 30.0247 5.88678 29.984 6.03045L27.5773 19.8258C27.5366 20.0654 27.3733 20.209 27.1692 20.209L8.77118 20.2094C6.93553 20.2094 5.42594 21.4547 5.42594 22.9399C5.42594 24.4247 6.93524 25.6704 8.77118 25.6704H27.21C27.4547 25.6704 27.6181 25.8618 27.6181 26.1495C27.6181 26.4365 27.414 26.628 27.21 26.628L27.2099 26.6282Z" fill="#BDB048"/>
<path d="M8.03677 20.3053C7.83274 20.3053 7.66968 20.1617 7.62871 19.9221L4.69152 1.43253H0.408058C0.163337 1.43253 0 1.24107 0 0.953385C0 0.666033 0.163053 0.474243 0.408058 0.474243H5.01788C5.22191 0.474243 5.38496 0.617919 5.42594 0.857489L8.44478 19.7303C8.48547 19.9698 8.32242 20.2572 8.11839 20.305C8.11811 20.2572 8.07742 20.3053 8.03672 20.3053L8.03677 20.3053Z" fill="#BDB048"/>
</svg>
