<svg width="446" height="423" viewBox="0 0 446 423" fill="none" xmlns="http://www.w3.org/2000/svg">
<path d="M11.2577 242.688C31.1577 255.518 49.7977 272.698 67.2577 293.888V326.288C58.7376 323.388 26.2177 311.368 13.3777 292.358C-1.46231 270.388 -4.10232 237.038 8.25766 228.688C11.4776 226.518 15.3877 226.248 19.6776 227.438C33.2076 237.168 46.1477 248.968 58.5077 262.718C62.8877 269.448 65.5977 278.018 67.2577 286.678V287.088C51.2677 264.828 32.4676 250.388 11.2577 242.688Z" fill="#405E5C"/>
<path d="M116.179 33.5829C99.0656 46.3728 83.0358 63.4992 68.0209 84.6231V92C69.457 91.4318 71.6757 90.5246 74.4104 89.2785C86.6907 72.4014 100.691 61.0369 116.179 54.5173C105.343 62.612 94.9378 72.4512 84.9535 83.9452C95.5139 78.0537 107.863 69.321 114.356 58.1759C115.044 56.9996 115.697 55.8133 116.316 54.617C127.238 33.6027 127.96 10.5549 117.899 2.67958C107.27 -5.6444 88.6342 6.14871 75.8724 28.0402C68.4939 40.7105 66.4214 60.369 66 74.6742C66.6793 75.711 67.3501 76.7677 68.0209 77.8443C81.7717 55.6538 97.9391 41.2588 116.179 33.5829V33.5829Z" fill="#405E5C"/>
<path d="M4.80418 162.087V162.097C6.37348 166.007 8.34049 169.957 10.6835 173.848C14.1645 179.639 19.5133 185.011 25.5693 189.817C32.0563 194.971 39.3722 199.468 46.1024 203.12C55.4959 208.224 63.751 211.687 67 213V209.866C48.3346 189.867 28.4868 173.569 7.32387 161.291C29.802 168.634 49.8154 182.166 67 202.792V188.971C48.3346 168.972 28.4868 152.675 7.32387 140.397C29.802 147.74 49.8154 161.271 67 181.897V168.077C48.5778 148.347 29.0172 132.218 8.16377 120C-1.60553 127.074 -2.45636 144.138 4.80418 162.087V162.087Z" fill="#405E5C"/>
<path d="M68.2578 74.688H66.2578V422.688H68.2578V74.688Z" fill="#3F3D56"/>
<path d="M328.847 241.688C348.747 254.518 367.387 271.698 384.847 292.888V325.288C376.327 322.388 343.807 310.368 330.967 291.358C316.127 269.388 313.487 236.038 325.847 227.688C329.067 225.518 332.977 225.248 337.267 226.438C350.796 236.168 363.737 247.968 376.097 261.718C380.477 268.448 383.187 277.018 384.847 285.678V286.088C368.857 263.828 350.056 249.388 328.847 241.688Z" fill="#405E5C"/>
<path d="M433.768 34.5829C416.654 47.3728 400.625 64.4992 385.61 85.6231V93C387.046 92.4318 389.265 91.5246 391.999 90.2785C404.28 73.4014 418.28 62.0369 433.768 55.5173C422.932 63.612 412.527 73.4512 402.542 84.9452C413.103 79.0537 425.452 70.321 431.945 59.1759C432.633 57.9996 433.286 56.8133 433.905 55.617C444.827 34.6027 445.549 11.5549 435.488 3.67958C424.859 -4.6444 406.223 7.14871 393.461 29.0402C386.083 41.7105 384.01 61.369 383.589 75.6742C384.268 76.711 384.939 77.7677 385.61 78.8443C399.361 56.6538 415.528 42.2588 433.768 34.5829V34.5829Z" fill="#405E5C"/>
<path d="M441.127 160.893V160.903C439.707 164.833 437.927 168.803 435.807 172.713C432.657 178.533 427.817 183.933 422.337 188.763C416.467 193.943 409.847 198.463 403.757 202.133C395.257 207.263 387.787 210.743 384.847 212.063V208.913C401.737 188.813 419.697 172.433 438.847 160.094C418.507 167.474 400.397 181.073 384.847 201.803V187.913C401.737 167.813 419.697 151.433 438.847 139.094C418.507 146.474 400.397 160.073 384.847 180.803V166.914C401.517 147.083 419.217 130.873 438.087 118.594C446.927 125.703 447.697 142.854 441.127 160.893V160.893Z" fill="#405E5C"/>
<path d="M385.847 73.688H383.847V421.688H385.847V73.688Z" fill="#3F3D56"/>
<path d="M199.369 242.639C219.269 255.469 237.909 272.649 255.369 293.839V326.239C246.849 323.339 214.329 311.319 201.489 292.309C186.649 270.339 184.009 236.989 196.369 228.639C199.589 226.469 203.499 226.199 207.789 227.389C221.319 237.119 234.259 248.919 246.619 262.669C250.999 269.399 253.709 277.969 255.369 286.629V287.039C239.379 264.779 220.579 250.339 199.369 242.639V242.639Z" fill="#405E5C"/>
<path d="M198.369 43.6387C218.269 56.4686 236.909 73.6487 254.369 94.8387V102.239C252.699 101.669 250.119 100.759 246.939 99.5087C232.659 82.5787 216.379 71.1786 198.369 64.6387C210.969 72.7587 223.069 82.6286 234.679 94.1586C222.399 88.2486 208.039 79.4886 200.489 68.3086C199.689 67.1286 198.929 65.9386 198.209 64.7386C185.509 43.6586 184.669 20.5386 196.369 12.6387C208.729 4.28861 230.399 16.1186 245.239 38.0787C253.819 50.7886 256.229 70.5086 256.719 84.8586C255.929 85.8987 255.149 86.9586 254.369 88.0386C238.379 65.7786 219.579 51.3387 198.369 43.6387V43.6387Z" fill="#405E5C"/>
<path d="M311.649 161.844V161.854C310.229 165.784 308.449 169.754 306.329 173.664C303.179 179.484 298.339 184.884 292.859 189.714C286.989 194.894 280.369 199.414 274.279 203.084C265.779 208.214 258.309 211.694 255.369 213.014V209.864C272.259 189.764 290.219 173.384 309.369 161.044C289.029 168.424 270.919 182.024 255.369 202.754V188.864C272.259 168.764 290.219 152.384 309.369 140.044C289.029 147.424 270.919 161.024 255.369 181.754V167.864C272.039 148.034 289.739 131.824 308.609 119.544C317.449 126.654 318.219 143.804 311.649 161.844V161.844Z" fill="#405E5C"/>
<path d="M256.369 74.6387H254.369V422.639H256.369V74.6387Z" fill="#3F3D56"/>
</svg>
